<svg xmlns="http://www.w3.org/2000/svg" xmlns:xlink="http://www.w3.org/1999/xlink" width="1080" zoomAndPan="magnify" viewBox="0 0 810 809.999993" height="1080" preserveAspectRatio="xMidYMid meet" version="1.0"><path fill="#264de4" d="M 171.3125 664.222656 L 119.3125 81 L 690.6875 81 L 638.632812 664.132812 L 404.652344 729 Z M 171.3125 664.222656 " fill-opacity="1" fill-rule="nonzero"/><path fill="#2965f1" d="M 594.070312 627 L 638.554688 128.6875 L 405 128.6875 L 405 679.417969 Z M 594.070312 627 " fill-opacity="1" fill-rule="nonzero"/><path fill="#ebebeb" d="M 238.519531 344.996094 L 244.929688 416.527344 L 405 416.527344 L 405 344.996094 Z M 232.140625 271.75 L 405 271.75 L 405 200.21875 L 225.636719 200.21875 Z M 405 530.769531 L 404.6875 530.851562 L 325.023438 509.339844 L 319.929688 452.292969 L 248.125 452.292969 L 258.148438 564.605469 L 404.671875 605.28125 L 405 605.1875 Z M 405 530.769531 " fill-opacity="1" fill-rule="nonzero"/><path fill="#ffffff" d="M 404.753906 344.996094 L 404.753906 416.527344 L 492.835938 416.527344 L 484.53125 509.296875 L 404.753906 530.828125 L 404.753906 605.246094 L 551.394531 564.605469 L 552.46875 552.519531 L 569.277344 364.203125 L 571.023438 344.996094 L 583.9375 200.21875 L 404.753906 200.21875 L 404.753906 271.75 L 505.546875 271.75 L 499.035156 344.996094 Z M 404.753906 344.996094 " fill-opacity="1" fill-rule="nonzero"/></svg>