<svg xmlns="http://www.w3.org/2000/svg" xmlns:xlink="http://www.w3.org/1999/xlink" width="1080" zoomAndPan="magnify" viewBox="0 0 810 809.999993" height="1080" preserveAspectRatio="xMidYMid meet" version="1.0"><defs><clipPath id="4a96bca840"><path d="M 111.871094 111.871094 L 698.371094 111.871094 L 698.371094 698.371094 L 111.871094 698.371094 Z M 111.871094 111.871094 " clip-rule="nonzero"/></clipPath></defs><g clip-path="url(#4a96bca840)"><path fill="#ffffff" d="M 404.996094 111.871094 C 243.109375 111.871094 111.871094 243.109375 111.871094 404.996094 C 111.871094 566.886719 243.109375 698.125 404.996094 698.125 C 566.886719 698.125 698.125 566.886719 698.125 404.996094 C 698.125 243.109375 566.886719 111.871094 404.996094 111.871094 Z M 404.996094 675.921875 C 255.371094 675.921875 134.074219 554.625 134.074219 404.996094 C 134.074219 255.371094 255.371094 134.074219 404.996094 134.074219 C 554.625 134.074219 675.921875 255.371094 675.921875 404.996094 C 675.921875 554.625 554.625 675.921875 404.996094 675.921875 Z M 404.996094 675.921875 " fill-opacity="1" fill-rule="nonzero"/></g><path fill="#ffffff" d="M 370.59375 548.679688 C 363.242188 549.386719 357.371094 550.195312 351.472656 550.472656 C 318.027344 552.054688 293.265625 538.867188 278.25 508.121094 C 273.464844 498.332031 267.34375 489.089844 260.96875 480.21875 C 257.140625 474.890625 251.773438 470.609375 246.816406 466.171875 L 246.757812 466.121094 C 243.695312 463.421875 245.046875 458.378906 249.070312 457.703125 C 253.796875 456.910156 258.203125 457.761719 262.496094 458.855469 C 275.945312 462.277344 284.578125 471.8125 291.453125 483.214844 C 307.007812 509 333.792969 519.757812 362.757812 512.074219 C 367.675781 510.769531 369.84375 508.652344 370.914062 503.289062 C 372.160156 497.035156 373.859375 490.871094 375.683594 484.585938 C 375.816406 484.125 375.925781 483.65625 376.011719 483.183594 C 376.097656 482.710938 376.160156 482.234375 376.199219 481.753906 C 376.238281 481.277344 376.253906 480.796875 376.242188 480.316406 C 376.230469 479.835938 376.195312 479.355469 376.136719 478.878906 C 376.078125 478.402344 375.996094 477.929688 375.886719 477.460938 C 375.78125 476.992188 375.652344 476.53125 375.496094 476.074219 C 375.34375 475.621094 375.167969 475.171875 374.96875 474.734375 C 374.769531 474.296875 374.546875 473.871094 374.304688 473.457031 C 374.0625 473.042969 373.800781 472.640625 373.519531 472.25 C 373.234375 471.863281 372.933594 471.488281 372.613281 471.132812 C 372.289062 470.773438 371.953125 470.433594 371.597656 470.109375 C 371.242188 469.785156 370.871094 469.480469 370.484375 469.195312 C 370.097656 468.910156 369.699219 468.644531 369.285156 468.398438 C 368.871094 468.152344 368.445312 467.929688 368.011719 467.726562 C 367.574219 467.523438 367.128906 467.34375 366.675781 467.1875 C 366.21875 467.03125 365.757812 466.894531 365.292969 466.785156 L 365.128906 466.746094 C 335.078125 459.554688 309.113281 446.167969 292.386719 418.703125 C 283.441406 404.019531 279.015625 387.839844 279.242188 370.988281 C 279.5 351.867188 281.191406 332.703125 283.390625 313.691406 C 284.9375 300.300781 291.136719 288.445312 300.765625 278.816406 C 304.121094 275.464844 304.402344 272.648438 302.785156 268.304688 C 296.15625 250.515625 297.308594 232.6875 303.191406 214.859375 C 304.851562 209.832031 307.207031 209.109375 312.019531 210.625 C 326.910156 215.3125 338.019531 225 347.785156 236.605469 L 347.882812 236.726562 C 348.492188 237.457031 349.15625 238.140625 349.867188 238.777344 C 350.578125 239.410156 351.332031 239.988281 352.132812 240.511719 C 352.929688 241.03125 353.761719 241.492188 354.628906 241.890625 C 355.496094 242.285156 356.386719 242.617188 357.300781 242.882812 C 358.21875 243.148438 359.148438 243.34375 360.09375 243.46875 C 361.039062 243.59375 361.988281 243.648438 362.941406 243.632812 C 363.894531 243.617188 364.839844 243.53125 365.78125 243.375 C 366.722656 243.21875 367.644531 242.996094 368.550781 242.699219 C 399.453125 232.566406 446.335938 232.429688 475.480469 242.460938 C 476.390625 242.769531 477.320312 243.007812 478.265625 243.179688 C 479.210938 243.347656 480.167969 243.445312 481.128906 243.46875 C 482.089844 243.496094 483.046875 243.449219 484 243.332031 C 484.953125 243.210938 485.894531 243.023438 486.820312 242.761719 C 487.746094 242.5 488.648438 242.171875 489.523438 241.777344 C 490.398438 241.382812 491.242188 240.921875 492.046875 240.398438 C 492.855469 239.875 493.617188 239.296875 494.335938 238.660156 C 495.058594 238.019531 495.726562 237.332031 496.339844 236.59375 L 496.433594 236.484375 C 506.214844 224.878906 517.375 215.265625 532.253906 210.566406 C 537.246094 208.988281 539.375 210.1875 540.953125 215.042969 C 546.761719 232.878906 547.75 250.601562 541.46875 268.578125 C 540.585938 271.105469 540.621094 275.507812 542.195312 277.105469 C 555.539062 290.640625 561.378906 307.441406 562.863281 325.644531 C 564.292969 343.230469 565.84375 361.121094 564.210938 378.585938 C 559.964844 424.003906 532.347656 450.457031 490.351562 463.605469 C 486.757812 464.730469 483.109375 465.675781 479.382812 466.554688 C 478.898438 466.671875 478.421875 466.808594 477.953125 466.972656 C 477.484375 467.136719 477.027344 467.324219 476.578125 467.539062 C 476.128906 467.75 475.691406 467.984375 475.269531 468.242188 C 474.84375 468.5 474.433594 468.777344 474.039062 469.078125 C 473.644531 469.378906 473.265625 469.699219 472.902344 470.039062 C 472.542969 470.378906 472.199219 470.738281 471.875 471.113281 C 471.550781 471.492188 471.246094 471.882812 470.964844 472.292969 C 470.679688 472.699219 470.417969 473.121094 470.179688 473.554688 C 469.941406 473.992188 469.726562 474.4375 469.535156 474.894531 C 469.339844 475.351562 469.171875 475.820312 469.03125 476.296875 C 468.886719 476.769531 468.769531 477.25 468.675781 477.738281 C 468.582031 478.226562 468.515625 478.71875 468.472656 479.214844 C 468.429688 479.707031 468.414062 480.203125 468.425781 480.699219 C 468.4375 481.195312 468.472656 481.691406 468.535156 482.183594 C 468.597656 482.675781 468.683594 483.164062 468.796875 483.648438 C 468.910156 484.132812 469.046875 484.609375 469.210938 485.078125 C 474.933594 501.652344 474.058594 519.363281 473.96875 536.960938 C 473.949219 541.003906 473.933594 545.050781 473.925781 549.101562 C 473.921875 550.769531 473.839844 552.4375 473.671875 554.101562 C 473.503906 555.761719 473.257812 557.414062 472.925781 559.050781 C 472.597656 560.691406 472.1875 562.308594 471.703125 563.90625 C 471.214844 565.503906 470.648438 567.074219 470.007812 568.617188 C 469.363281 570.160156 468.648438 571.667969 467.859375 573.140625 C 467.070312 574.613281 466.207031 576.042969 465.277344 577.429688 C 464.347656 578.820312 463.351562 580.160156 462.289062 581.449219 C 461.230469 582.738281 460.105469 583.976562 458.925781 585.15625 C 457.742188 586.335938 456.503906 587.453125 455.210938 588.511719 C 453.917969 589.574219 452.578125 590.566406 451.1875 591.492188 C 449.796875 592.417969 448.363281 593.277344 446.890625 594.0625 C 445.414062 594.851562 443.90625 595.5625 442.363281 596.199219 C 440.816406 596.839844 439.246094 597.402344 437.648438 597.886719 C 436.046875 598.371094 434.429688 598.773438 432.789062 599.101562 C 431.152344 599.425781 429.5 599.671875 427.835938 599.832031 C 426.171875 599.996094 424.507812 600.078125 422.835938 600.078125 L 421.683594 600.078125 C 420.011719 600.078125 418.34375 599.996094 416.675781 599.832031 C 415.011719 599.667969 413.359375 599.421875 411.71875 599.097656 C 410.074219 598.769531 408.453125 598.363281 406.851562 597.878906 C 405.253906 597.394531 403.679688 596.828125 402.132812 596.1875 C 400.585938 595.546875 399.074219 594.835938 397.601562 594.046875 C 396.125 593.257812 394.691406 592.398438 393.300781 591.46875 C 391.90625 590.539062 390.566406 589.542969 389.273438 588.480469 C 387.980469 587.417969 386.742188 586.296875 385.558594 585.113281 C 384.375 583.929688 383.25 582.691406 382.191406 581.398438 C 381.128906 580.105469 380.132812 578.761719 379.203125 577.371094 C 378.273438 575.980469 377.414062 574.546875 376.625 573.070312 C 375.835938 571.59375 375.121094 570.085938 374.480469 568.539062 C 373.839844 566.992188 373.277344 565.417969 372.792969 563.816406 C 372.308594 562.214844 371.902344 560.59375 371.574219 558.953125 C 371.246094 557.3125 371.003906 555.660156 370.839844 553.992188 C 370.675781 552.328125 370.59375 550.660156 370.59375 548.984375 Z M 370.59375 548.679688 " fill-opacity="1" fill-rule="nonzero"/></svg>