<svg xmlns="http://www.w3.org/2000/svg" xmlns:xlink="http://www.w3.org/1999/xlink" width="1080" zoomAndPan="magnify" viewBox="0 0 810 809.999993" height="1080" preserveAspectRatio="xMidYMid meet" version="1.0"><defs><clipPath id="d9458dbcfe"><path d="M 128.054688 104 L 667.941406 104 L 667.941406 717 L 128.054688 717 Z M 128.054688 104 " clip-rule="nonzero"/></clipPath></defs><g clip-path="url(#d9458dbcfe)"><path fill="#e44d26" d="M 177.066406 655.5625 L 127.902344 104.046875 L 668.09375 104.046875 L 618.890625 655.484375 L 397.652344 716.800781 Z M 177.066406 655.5625 " fill-opacity="1" fill-rule="nonzero"/></g><path fill="#f16529" d="M 576.753906 620.367188 L 618.816406 149.140625 L 398 149.140625 L 398 669.945312 Z M 576.753906 620.367188 " fill-opacity="1" fill-rule="nonzero"/><path fill="#ebebeb" d="M 397.769531 216.773438 L 228.410156 216.773438 L 246.65625 421.328125 L 398 421.328125 L 398 353.691406 L 308.515625 353.691406 L 302.332031 284.433594 L 398 284.433594 L 398 216.773438 Z M 398 529.140625 L 397.710938 529.21875 L 322.394531 508.878906 L 317.609375 454.9375 L 249.683594 454.9375 L 259.160156 561.140625 L 397.691406 599.4375 L 398 599.339844 Z M 398 529.140625 " fill-opacity="1" fill-rule="nonzero"/><path fill="#ffffff" d="M 397.769531 421.328125 L 481.046875 421.328125 L 473.394531 509.03125 L 397.960938 529.386719 L 397.960938 599.765625 L 536.605469 561.328125 L 555.179688 353.65625 L 398 353.65625 Z M 565.554688 234.929688 L 567.164062 216.773438 L 397.730469 216.773438 L 397.730469 284.414062 L 561.074219 284.414062 L 562.417969 269.207031 Z M 565.554688 234.929688 " fill-opacity="1" fill-rule="nonzero"/></svg>