<svg xmlns="http://www.w3.org/2000/svg" xmlns:xlink="http://www.w3.org/1999/xlink" width="1080" zoomAndPan="magnify" viewBox="0 0 810 809.999993" height="1080" preserveAspectRatio="xMidYMid meet" version="1.0"><defs><clipPath id="e68af96607"><path d="M 106.488281 106.488281 L 703.488281 106.488281 L 703.488281 703.488281 L 106.488281 703.488281 Z M 106.488281 106.488281 " clip-rule="nonzero"/></clipPath></defs><g clip-path="url(#e68af96607)"><path fill="#ffffff" d="M 240.789062 106.488281 L 568.839844 106.488281 C 605.914062 106.488281 639.488281 121.527344 663.96875 146.007812 C 688.101562 170.140625 703.488281 204.066406 703.488281 240.789062 L 703.488281 568.839844 C 703.488281 605.914062 688.101562 639.488281 663.96875 663.96875 C 639.488281 688.101562 605.914062 703.488281 568.839844 703.488281 L 240.789062 703.488281 C 204.066406 703.488281 170.140625 688.101562 146.007812 663.96875 C 121.527344 639.488281 106.488281 605.914062 106.488281 568.839844 L 106.488281 240.789062 C 106.488281 204.066406 121.527344 170.140625 146.007812 146.007812 C 170.140625 121.527344 204.066406 106.488281 240.789062 106.488281 Z M 568.839844 159.648438 L 240.789062 159.648438 C 218.40625 159.648438 198.121094 168.742188 183.429688 183.429688 C 168.742188 198.121094 159.648438 218.40625 159.648438 240.789062 L 159.648438 568.839844 C 159.648438 591.222656 168.742188 611.507812 183.429688 626.199219 C 198.121094 641.238281 218.40625 650.328125 240.789062 650.328125 L 568.839844 650.328125 C 591.222656 650.328125 611.507812 641.238281 626.199219 626.199219 C 641.238281 611.507812 650.328125 591.222656 650.328125 568.839844 L 650.328125 240.789062 C 650.328125 218.40625 641.238281 198.121094 626.199219 183.429688 C 611.507812 168.742188 591.222656 159.648438 568.839844 159.648438 Z M 568.839844 159.648438 " fill-opacity="1" fill-rule="nonzero"/></g><path fill="#ffffff" d="M 572.339844 210.710938 C 579.683594 210.710938 586.675781 213.507812 591.222656 218.40625 C 596.121094 223.300781 599.269531 229.945312 599.269531 237.289062 C 599.269531 244.636719 596.121094 251.628906 591.222656 256.175781 C 586.675781 261.074219 579.683594 264.21875 572.339844 264.21875 C 564.992188 264.21875 558.347656 261.074219 553.453125 256.175781 C 548.554688 251.628906 545.757812 244.636719 545.757812 237.289062 C 545.757812 229.945312 548.554688 223.300781 553.453125 218.40625 C 558.347656 213.507812 564.992188 210.710938 572.339844 210.710938 Z M 572.339844 210.710938 " fill-opacity="1" fill-rule="nonzero"/><path fill="#ffffff" d="M 404.816406 260.023438 C 445.035156 260.023438 481.058594 276.460938 507.289062 302.34375 C 533.519531 328.570312 549.957031 364.945312 549.957031 404.816406 C 549.957031 445.035156 533.519531 481.058594 507.289062 507.289062 C 481.058594 533.519531 445.035156 549.957031 404.816406 549.957031 C 364.945312 549.957031 328.570312 533.519531 302.34375 507.289062 C 276.460938 481.058594 260.023438 445.035156 260.023438 404.816406 C 260.023438 364.945312 276.460938 328.570312 302.34375 302.34375 C 328.570312 276.460938 364.945312 260.023438 404.816406 260.023438 Z M 469.515625 340.464844 C 453.078125 324.027344 429.996094 313.535156 404.816406 313.535156 C 379.632812 313.535156 356.902344 324.027344 340.464844 340.464844 C 324.027344 356.902344 313.535156 379.632812 313.535156 404.816406 C 313.535156 429.996094 324.027344 453.078125 340.464844 469.515625 C 356.902344 485.953125 379.632812 496.097656 404.816406 496.097656 C 429.996094 496.097656 453.078125 485.953125 469.515625 469.515625 C 485.953125 453.078125 496.097656 429.996094 496.097656 404.816406 C 496.097656 379.632812 485.953125 356.902344 469.515625 340.464844 Z M 469.515625 340.464844 " fill-opacity="1" fill-rule="nonzero"/></svg>