<svg xmlns="http://www.w3.org/2000/svg" xmlns:xlink="http://www.w3.org/1999/xlink" width="1080" zoomAndPan="magnify" viewBox="0 0 810 809.999993" height="1080" preserveAspectRatio="xMidYMid meet" version="1.0"><path fill="#f7df1e" d="M 81 81 L 729 81 L 729 729 L 81 729 Z M 81 81 " fill-opacity="1" fill-rule="nonzero"/><path fill="#000000" d="M 516.292969 587.253906 C 529.34375 608.566406 546.324219 624.230469 576.359375 624.230469 C 601.589844 624.230469 617.707031 611.621094 617.707031 594.195312 C 617.707031 573.316406 601.148438 565.921875 573.378906 553.773438 L 558.152344 547.242188 C 514.214844 528.519531 485.023438 505.070312 485.023438 455.492188 C 485.023438 409.824219 519.820312 375.058594 574.199219 375.058594 C 612.914062 375.058594 640.75 388.53125 660.804688 423.8125 L 613.386719 454.257812 C 602.949219 435.539062 591.6875 428.164062 574.199219 428.164062 C 556.363281 428.164062 545.0625 439.476562 545.0625 454.257812 C 545.0625 472.527344 556.375 479.921875 582.5 491.234375 L 597.722656 497.757812 C 649.460938 519.941406 678.671875 542.5625 678.671875 593.414062 C 678.671875 648.238281 635.605469 678.269531 577.769531 678.269531 C 521.21875 678.269531 484.683594 651.324219 466.808594 616 Z M 301.1875 592.527344 C 310.753906 609.5 319.453125 623.847656 340.375 623.847656 C 360.378906 623.847656 373 616.023438 373 585.585938 L 373 378.535156 L 433.894531 378.535156 L 433.894531 586.410156 C 433.894531 649.460938 396.925781 678.15625 342.96875 678.15625 C 294.210938 678.15625 265.976562 652.925781 251.621094 622.539062 Z M 301.1875 592.527344 " fill-opacity="1" fill-rule="nonzero"/></svg>