<svg xmlns="http://www.w3.org/2000/svg" xmlns:xlink="http://www.w3.org/1999/xlink" width="1080" zoomAndPan="magnify" viewBox="0 0 810 809.999993" height="1080" preserveAspectRatio="xMidYMid meet" version="1.0"><defs><clipPath id="5072e66e75"><path d="M 105.921875 105.921875 L 704.421875 105.921875 L 704.421875 704.421875 L 105.921875 704.421875 Z M 105.921875 105.921875 " clip-rule="nonzero"/></clipPath></defs><g clip-path="url(#5072e66e75)"><path fill="#ffffff" d="M 404.996094 105.921875 C 239.824219 105.921875 105.921875 239.824219 105.921875 404.996094 C 105.921875 570.171875 239.824219 704.070312 404.996094 704.070312 C 570.171875 704.070312 704.070312 570.171875 704.070312 404.996094 C 704.070312 239.824219 570.171875 105.921875 404.996094 105.921875 Z M 222.714844 261.945312 L 586.894531 261.945312 C 587.308594 261.941406 587.6875 262.054688 588.027344 262.285156 C 588.371094 262.515625 588.621094 262.824219 588.773438 263.207031 C 588.925781 263.589844 588.960938 263.980469 588.871094 264.386719 C 588.785156 264.789062 588.589844 265.132812 588.292969 265.417969 L 465.863281 381.605469 L 465.664062 381.804688 L 429.109375 416.496094 C 428.238281 417.324219 427.328125 418.113281 426.382812 418.855469 C 425.4375 419.601562 424.457031 420.296875 423.441406 420.945312 C 422.429688 421.59375 421.386719 422.195312 420.316406 422.746094 C 419.246094 423.292969 418.152344 423.789062 417.03125 424.234375 C 415.914062 424.679688 414.777344 425.070312 413.621094 425.40625 C 412.464844 425.738281 411.296875 426.019531 410.113281 426.242188 C 408.929688 426.464844 407.738281 426.632812 406.542969 426.742188 C 405.34375 426.847656 404.140625 426.902344 402.9375 426.894531 C 401.734375 426.886719 400.535156 426.824219 399.335938 426.703125 C 398.140625 426.582031 396.949219 426.402344 395.769531 426.167969 C 394.589844 425.929688 393.421875 425.640625 392.269531 425.292969 C 391.117188 424.945312 389.984375 424.542969 388.871094 424.085938 C 387.757812 423.628906 386.667969 423.121094 385.605469 422.558594 C 384.539062 422 383.503906 421.390625 382.496094 420.730469 C 381.492188 420.070312 380.519531 419.363281 379.578125 418.609375 C 378.640625 417.855469 377.742188 417.058594 376.878906 416.21875 L 343.03125 383.402344 C 342.976562 383.347656 342.921875 383.292969 342.859375 383.238281 L 221.304688 265.402344 C 221.011719 265.113281 220.820312 264.769531 220.738281 264.371094 C 220.652344 263.96875 220.6875 263.578125 220.84375 263.195312 C 220.996094 262.816406 221.246094 262.511719 221.585938 262.285156 C 221.929688 262.054688 222.304688 261.941406 222.714844 261.945312 Z M 205.546875 527.957031 L 205.546875 278.019531 C 205.546875 277.617188 205.660156 277.246094 205.882812 276.910156 C 206.105469 276.570312 206.402344 276.324219 206.773438 276.167969 C 207.148438 276.007812 207.53125 275.96875 207.929688 276.042969 C 208.328125 276.113281 208.671875 276.292969 208.960938 276.574219 L 324.472656 388.574219 C 324.65625 388.75 324.800781 388.953125 324.902344 389.183594 C 325.007812 389.417969 325.066406 389.660156 325.082031 389.914062 C 325.09375 390.167969 325.0625 390.414062 324.980469 390.65625 C 324.898438 390.894531 324.777344 391.113281 324.613281 391.308594 L 209.105469 529.253906 C 208.832031 529.578125 208.492188 529.796875 208.082031 529.90625 C 207.671875 530.015625 207.269531 530 206.871094 529.851562 C 206.472656 529.707031 206.152344 529.460938 205.910156 529.113281 C 205.667969 528.765625 205.546875 528.378906 205.546875 527.957031 Z M 590.648438 548.050781 L 219.347656 548.050781 C 218.957031 548.050781 218.597656 547.945312 218.265625 547.734375 C 217.9375 547.523438 217.691406 547.242188 217.523438 546.886719 C 217.359375 546.535156 217.300781 546.164062 217.351562 545.777344 C 217.402344 545.386719 217.554688 545.046875 217.804688 544.746094 L 336.390625 403.136719 C 336.570312 402.921875 336.785156 402.753906 337.035156 402.628906 C 337.285156 402.503906 337.550781 402.433594 337.828125 402.417969 C 338.109375 402.40625 338.378906 402.445312 338.640625 402.546875 C 338.902344 402.644531 339.132812 402.789062 339.335938 402.984375 L 365.285156 428.148438 C 367.777344 430.570312 370.476562 432.734375 373.382812 434.636719 C 376.289062 436.539062 379.347656 438.148438 382.566406 439.460938 C 385.78125 440.773438 389.09375 441.769531 392.503906 442.445312 C 395.910156 443.117188 399.351562 443.460938 402.824219 443.476562 L 403.121094 443.476562 C 406.570312 443.480469 409.992188 443.160156 413.378906 442.511719 C 416.765625 441.863281 420.0625 440.898438 423.265625 439.621094 C 426.472656 438.34375 429.523438 436.773438 432.429688 434.910156 C 435.332031 433.046875 438.03125 430.925781 440.53125 428.546875 L 469.25 401.28125 C 469.453125 401.089844 469.683594 400.945312 469.945312 400.847656 C 470.207031 400.753906 470.476562 400.714844 470.753906 400.730469 C 471.027344 400.746094 471.292969 400.816406 471.539062 400.941406 C 471.789062 401.066406 472 401.234375 472.179688 401.445312 L 592.179688 544.746094 C 592.429688 545.042969 592.582031 545.386719 592.632812 545.773438 C 592.683594 546.160156 592.628906 546.53125 592.464844 546.886719 C 592.300781 547.238281 592.054688 547.519531 591.722656 547.730469 C 591.394531 547.941406 591.035156 548.046875 590.648438 548.050781 Z M 604.445312 527.957031 C 604.445312 528.378906 604.324219 528.765625 604.082031 529.109375 C 603.839844 529.457031 603.519531 529.703125 603.121094 529.847656 C 602.722656 529.992188 602.320312 530.007812 601.910156 529.898438 C 601.503906 529.789062 601.160156 529.570312 600.890625 529.246094 L 484.109375 389.789062 C 483.945312 389.59375 483.820312 389.375 483.742188 389.128906 C 483.660156 388.886719 483.628906 388.636719 483.640625 388.382812 C 483.65625 388.125 483.71875 387.882812 483.824219 387.648438 C 483.933594 387.417969 484.082031 387.214844 484.265625 387.035156 L 601.054688 276.203125 C 601.347656 275.929688 601.691406 275.757812 602.085938 275.6875 C 602.480469 275.617188 602.863281 275.664062 603.230469 275.820312 C 603.597656 275.980469 603.890625 276.226562 604.113281 276.558594 C 604.335938 276.894531 604.445312 277.261719 604.445312 277.664062 Z M 604.445312 527.957031 " fill-opacity="1" fill-rule="nonzero"/></g></svg>