<svg xmlns="http://www.w3.org/2000/svg" xmlns:xlink="http://www.w3.org/1999/xlink" width="1080" zoomAndPan="magnify" viewBox="0 0 810 809.999993" height="1080" preserveAspectRatio="xMidYMid meet" version="1.0"><defs><clipPath id="ddfdbd402e"><path d="M 81 80.59375 L 728.25 80.59375 L 728.25 729.34375 L 81 729.34375 Z M 81 80.59375 " clip-rule="nonzero"/></clipPath></defs><g clip-path="url(#ddfdbd402e)"><path fill="#000000" d="M 383.429688 81.15625 C 382.039062 81.285156 377.609375 81.726562 373.621094 82.042969 C 281.691406 90.339844 195.582031 139.996094 141.042969 216.320312 C 110.671875 258.753906 91.25 306.890625 83.910156 357.878906 C 81.316406 375.675781 81 380.933594 81 405.066406 C 81 429.195312 81.316406 434.453125 83.910156 452.25 C 101.5 573.921875 187.988281 676.148438 305.292969 714.023438 C 326.296875 720.800781 348.441406 725.425781 373.621094 728.210938 C 383.429688 729.289062 425.820312 729.289062 435.628906 728.210938 C 479.09375 723.398438 515.917969 712.628906 552.234375 694.074219 C 557.800781 691.222656 558.875 690.460938 558.117188 689.828125 C 557.609375 689.449219 533.886719 657.589844 505.414062 619.082031 L 453.660156 549.09375 L 388.808594 453.011719 C 353.125 400.1875 323.765625 356.992188 323.511719 356.992188 C 323.261719 356.929688 323.007812 399.617188 322.878906 451.746094 C 322.691406 543.011719 322.628906 546.6875 321.488281 548.839844 C 319.84375 551.945312 318.578125 553.210938 315.921875 554.605469 C 313.894531 555.617188 312.125 555.808594 302.570312 555.808594 L 291.625 555.808594 L 288.714844 553.96875 C 286.816406 552.765625 285.425781 551.183594 284.476562 549.347656 L 283.148438 546.496094 L 283.273438 419.503906 L 283.464844 292.449219 L 285.425781 289.980469 C 286.4375 288.652344 288.589844 286.941406 290.105469 286.117188 C 292.699219 284.851562 293.714844 284.722656 304.660156 284.722656 C 317.566406 284.722656 319.71875 285.230469 323.070312 288.902344 C 324.019531 289.917969 359.132812 342.867188 401.144531 406.648438 C 443.15625 470.429688 500.605469 557.515625 528.824219 600.269531 L 580.070312 677.984375 L 582.667969 676.273438 C 605.632812 661.328125 629.929688 640.046875 649.164062 617.878906 C 690.097656 570.816406 716.480469 513.433594 725.339844 452.25 C 727.933594 434.453125 728.25 429.195312 728.25 405.066406 C 728.25 380.933594 727.933594 375.675781 725.339844 357.878906 C 707.75 236.207031 621.261719 133.980469 503.957031 96.105469 C 483.269531 89.390625 461.25 84.765625 436.578125 81.980469 C 430.503906 81.347656 388.679688 80.652344 383.429688 81.15625 Z M 515.917969 277.125 C 518.953125 278.644531 521.421875 281.558594 522.308594 284.597656 C 522.8125 286.242188 522.941406 321.460938 522.8125 400.820312 L 522.625 514.703125 L 502.566406 483.917969 L 482.445312 453.136719 L 482.445312 370.355469 C 482.445312 316.835938 482.699219 286.75 483.078125 285.292969 C 484.09375 281.746094 486.304688 278.960938 489.34375 277.3125 C 491.9375 275.984375 492.886719 275.855469 502.820312 275.855469 C 512.183594 275.855469 513.828125 275.984375 515.917969 277.125 Z M 515.917969 277.125 " fill-opacity="1" fill-rule="nonzero"/></g><path fill="#000000" d="M 576.910156 679.378906 C 574.695312 680.773438 574 681.722656 575.960938 680.644531 C 577.351562 679.820312 579.628906 678.113281 579.25 678.046875 C 579.058594 678.046875 577.984375 678.683594 576.910156 679.378906 Z M 572.542969 682.230469 C 571.402344 683.117188 571.402344 683.179688 572.796875 682.480469 C 573.554688 682.101562 574.1875 681.660156 574.1875 681.53125 C 574.1875 681.023438 573.871094 681.152344 572.542969 682.230469 Z M 569.378906 684.128906 C 568.242188 685.015625 568.242188 685.078125 569.632812 684.382812 C 570.390625 684.003906 571.023438 683.558594 571.023438 683.433594 C 571.023438 682.925781 570.707031 683.050781 569.378906 684.128906 Z M 566.214844 686.027344 C 565.078125 686.914062 565.078125 686.980469 566.46875 686.28125 C 567.226562 685.902344 567.859375 685.460938 567.859375 685.332031 C 567.859375 684.824219 567.542969 684.953125 566.214844 686.027344 Z M 561.40625 688.5625 C 559.003906 689.828125 559.128906 690.335938 561.535156 689.132812 C 562.609375 688.5625 563.433594 687.992188 563.433594 687.867188 C 563.433594 687.421875 563.367188 687.484375 561.40625 688.5625 Z M 561.40625 688.5625 " fill-opacity="1" fill-rule="nonzero"/></svg>