<svg xmlns="http://www.w3.org/2000/svg" xmlns:xlink="http://www.w3.org/1999/xlink" width="1080" zoomAndPan="magnify" viewBox="0 0 810 809.999993" height="1080" preserveAspectRatio="xMidYMid meet" version="1.0"><defs><clipPath id="5c7e1164e7"><path d="M 81 207 L 729 207 L 729 595.800781 L 81 595.800781 Z M 81 207 " clip-rule="nonzero"/></clipPath></defs><g clip-path="url(#5c7e1164e7)"><path fill="#38bdf8" d="M 405 207 C 318.601562 207 264.601562 250.199219 243 336.601562 C 275.398438 293.398438 313.199219 277.199219 356.398438 288 C 381.046875 294.15625 398.664062 312.046875 418.164062 331.835938 C 449.929688 364.078125 486.695312 401.398438 567 401.398438 C 653.398438 401.398438 707.398438 358.199219 729 271.800781 C 696.601562 315 658.800781 331.199219 615.601562 320.398438 C 590.953125 314.242188 573.335938 296.351562 553.835938 276.5625 C 522.070312 244.320312 485.304688 207 405 207 Z M 243 401.398438 C 156.601562 401.398438 102.601562 444.601562 81 531 C 113.398438 487.800781 151.199219 471.601562 194.398438 482.398438 C 219.046875 488.566406 236.664062 506.449219 256.164062 526.234375 C 287.929688 558.480469 324.695312 595.800781 405 595.800781 C 491.398438 595.800781 545.398438 552.601562 567 466.199219 C 534.601562 509.398438 496.800781 525.601562 453.601562 514.800781 C 428.953125 508.644531 411.335938 490.753906 391.835938 470.964844 C 360.070312 438.71875 323.304688 401.398438 243 401.398438 Z M 243 401.398438 " fill-opacity="1" fill-rule="evenodd"/></g></svg>