<svg xmlns="http://www.w3.org/2000/svg" xmlns:xlink="http://www.w3.org/1999/xlink" width="1080" zoomAndPan="magnify" viewBox="0 0 810 809.999993" height="1080" preserveAspectRatio="xMidYMid meet" version="1.0"><defs><clipPath id="19b6698f4c"><path d="M 40.5 457 L 769 457 L 769 727 L 40.5 727 Z M 40.5 457 " clip-rule="nonzero"/></clipPath><clipPath id="9cb64b7d18"><path d="M 40.5 85 L 769 85 L 769 390 L 40.5 390 Z M 40.5 85 " clip-rule="nonzero"/></clipPath></defs><g clip-path="url(#19b6698f4c)"><path fill="#ffffff" d="M 768.902344 457.839844 L 768.902344 672.601562 C 768.902344 674.359375 768.816406 676.109375 768.644531 677.855469 C 768.472656 679.601562 768.214844 681.332031 767.875 683.054688 C 767.53125 684.777344 767.105469 686.476562 766.597656 688.15625 C 766.085938 689.832031 765.496094 691.484375 764.824219 693.105469 C 764.152344 694.726562 763.40625 696.308594 762.578125 697.855469 C 761.75 699.402344 760.851562 700.90625 759.875 702.367188 C 758.898438 703.824219 757.855469 705.234375 756.742188 706.589844 C 755.628906 707.945312 754.453125 709.242188 753.210938 710.484375 C 751.972656 711.726562 750.671875 712.902344 749.316406 714.015625 C 747.960938 715.128906 746.554688 716.171875 745.09375 717.144531 C 743.636719 718.121094 742.132812 719.023438 740.585938 719.847656 C 739.039062 720.675781 737.453125 721.425781 735.832031 722.097656 C 734.210938 722.769531 732.5625 723.359375 730.882812 723.867188 C 729.203125 724.378906 727.503906 724.804688 725.785156 725.144531 C 724.0625 725.488281 722.328125 725.746094 720.582031 725.917969 C 718.835938 726.089844 717.085938 726.175781 715.332031 726.175781 L 93.476562 726.175781 C 91.71875 726.175781 89.96875 726.089844 88.222656 725.917969 C 86.476562 725.746094 84.746094 725.488281 83.023438 725.144531 C 81.300781 724.804688 79.601562 724.378906 77.925781 723.867188 C 76.246094 723.359375 74.59375 722.769531 72.972656 722.097656 C 71.351562 721.425781 69.769531 720.675781 68.222656 719.847656 C 66.675781 719.023438 65.171875 718.121094 63.710938 717.144531 C 62.253906 716.171875 60.847656 715.128906 59.488281 714.015625 C 58.132812 712.902344 56.835938 711.726562 55.59375 710.484375 C 54.351562 709.242188 53.175781 707.945312 52.0625 706.589844 C 50.949219 705.234375 49.90625 703.824219 48.933594 702.367188 C 47.957031 700.90625 47.054688 699.402344 46.230469 697.855469 C 45.402344 696.308594 44.652344 694.726562 43.980469 693.105469 C 43.308594 691.484375 42.71875 689.832031 42.210938 688.15625 C 41.699219 686.476562 41.273438 684.777344 40.933594 683.054688 C 40.589844 681.332031 40.332031 679.601562 40.160156 677.855469 C 39.988281 676.109375 39.902344 674.359375 39.902344 672.601562 L 39.902344 457.839844 L 318.617188 457.839844 C 318.738281 459.164062 318.890625 460.480469 319.070312 461.796875 C 319.253906 463.113281 319.464844 464.421875 319.707031 465.730469 C 319.949219 467.035156 320.222656 468.332031 320.527344 469.628906 C 320.828125 470.921875 321.160156 472.207031 321.523438 473.484375 C 321.886719 474.761719 322.277344 476.027344 322.699219 477.289062 C 323.117188 478.546875 323.566406 479.796875 324.046875 481.035156 C 324.523438 482.273438 325.03125 483.5 325.566406 484.71875 C 326.101562 485.933594 326.664062 487.132812 327.257812 488.324219 C 327.847656 489.511719 328.464844 490.6875 329.109375 491.847656 C 329.753906 493.007812 330.425781 494.15625 331.125 495.285156 C 331.824219 496.414062 332.546875 497.527344 333.296875 498.621094 C 334.046875 499.71875 334.820312 500.796875 335.621094 501.855469 C 336.417969 502.917969 337.242188 503.957031 338.089844 504.980469 C 338.9375 506.003906 339.808594 507.003906 340.703125 507.988281 C 341.597656 508.96875 342.511719 509.929688 343.453125 510.871094 C 344.390625 511.808594 345.347656 512.726562 346.332031 513.621094 C 347.3125 514.515625 348.3125 515.390625 349.332031 516.238281 C 350.355469 517.085938 351.394531 517.910156 352.453125 518.710938 C 353.511719 519.511719 354.589844 520.289062 355.6875 521.039062 C 356.78125 521.792969 357.894531 522.515625 359.019531 523.214844 C 360.148438 523.914062 361.292969 524.589844 362.453125 525.234375 C 363.613281 525.882812 364.789062 526.5 365.976562 527.09375 C 367.164062 527.6875 368.367188 528.25 369.582031 528.789062 C 370.796875 529.324219 372.023438 529.832031 373.261719 530.3125 C 374.5 530.792969 375.746094 531.246094 377.007812 531.667969 C 378.265625 532.089844 379.53125 532.480469 380.808594 532.847656 C 382.085938 533.210938 383.371094 533.542969 384.664062 533.847656 C 385.957031 534.152344 387.257812 534.425781 388.5625 534.671875 C 389.867188 534.914062 391.175781 535.128906 392.492188 535.3125 C 393.808594 535.496094 395.125 535.648438 396.449219 535.773438 C 397.769531 535.894531 399.09375 535.988281 400.421875 536.046875 C 401.75 536.109375 403.074219 536.140625 404.402344 536.140625 C 405.730469 536.140625 407.058594 536.109375 408.386719 536.046875 C 409.710938 535.984375 411.035156 535.894531 412.359375 535.773438 C 413.679688 535.648438 415 535.496094 416.3125 535.3125 C 417.628906 535.128906 418.941406 534.914062 420.246094 534.671875 C 421.550781 534.425781 422.847656 534.152344 424.140625 533.847656 C 425.433594 533.542969 426.71875 533.210938 427.996094 532.847656 C 429.273438 532.480469 430.542969 532.089844 431.800781 531.667969 C 433.058594 531.246094 434.308594 530.792969 435.546875 530.3125 C 436.785156 529.832031 438.011719 529.324219 439.226562 528.789062 C 440.441406 528.25 441.640625 527.6875 442.832031 527.09375 C 444.019531 526.5 445.191406 525.882812 446.351562 525.234375 C 447.511719 524.589844 448.65625 523.914062 449.785156 523.214844 C 450.914062 522.515625 452.027344 521.792969 453.121094 521.039062 C 454.214844 520.289062 455.292969 519.511719 456.351562 518.710938 C 457.414062 517.910156 458.453125 517.085938 459.472656 516.238281 C 460.496094 515.390625 461.496094 514.515625 462.476562 513.621094 C 463.457031 512.726562 464.417969 511.808594 465.355469 510.871094 C 466.292969 509.929688 467.210938 508.96875 468.105469 507.988281 C 468.996094 507.003906 469.867188 506.003906 470.714844 504.980469 C 471.5625 503.957031 472.386719 502.917969 473.1875 501.855469 C 473.984375 500.796875 474.761719 499.71875 475.511719 498.621094 C 476.261719 497.527344 476.984375 496.414062 477.683594 495.285156 C 478.378906 494.15625 479.050781 493.007812 479.695312 491.847656 C 480.34375 490.6875 480.960938 489.511719 481.550781 488.324219 C 482.140625 487.132812 482.703125 485.933594 483.238281 484.71875 C 483.773438 483.5 484.28125 482.273438 484.761719 481.035156 C 485.238281 479.796875 485.6875 478.546875 486.109375 477.289062 C 486.53125 476.027344 486.921875 474.761719 487.285156 473.484375 C 487.644531 472.207031 487.976562 470.921875 488.28125 469.628906 C 488.582031 468.332031 488.855469 467.035156 489.097656 465.730469 C 489.339844 464.421875 489.554688 463.113281 489.734375 461.796875 C 489.917969 460.480469 490.066406 459.164062 490.1875 457.839844 Z M 768.902344 457.839844 " fill-opacity="1" fill-rule="nonzero"/></g><path fill="#ffffff" d="M 464.058594 367.640625 L 464.058594 450.085938 C 464.242188 452.75 464.242188 455.414062 464.058594 458.078125 C 463.832031 459.859375 463.527344 461.628906 463.140625 463.382812 C 462.753906 465.136719 462.289062 466.871094 461.746094 468.582031 C 461.203125 470.292969 460.582031 471.980469 459.890625 473.636719 C 459.195312 475.292969 458.425781 476.914062 457.582031 478.5 C 456.742188 480.085938 455.832031 481.632812 454.851562 483.136719 C 453.867188 484.640625 452.820312 486.097656 451.707031 487.507812 C 450.597656 488.917969 449.421875 490.273438 448.1875 491.578125 C 446.949219 492.882812 445.660156 494.128906 444.3125 495.316406 C 442.964844 496.503906 441.566406 497.625 440.117188 498.6875 C 438.667969 499.75 437.171875 500.742188 435.632812 501.667969 C 434.09375 502.59375 432.515625 503.449219 430.898438 504.230469 C 429.285156 505.015625 427.636719 505.722656 425.953125 506.359375 C 424.273438 506.992188 422.570312 507.550781 420.839844 508.03125 C 419.109375 508.511719 417.359375 508.914062 415.59375 509.234375 C 413.824219 509.558594 412.046875 509.800781 410.257812 509.960938 C 408.46875 510.125 406.675781 510.203125 404.878906 510.203125 C 403.085938 510.203125 401.292969 510.125 399.503906 509.960938 C 397.714844 509.800781 395.9375 509.558594 394.167969 509.234375 C 392.402344 508.914062 390.652344 508.511719 388.921875 508.03125 C 387.191406 507.550781 385.488281 506.992188 383.804688 506.359375 C 382.125 505.722656 380.476562 505.015625 378.863281 504.230469 C 377.246094 503.449219 375.667969 502.59375 374.128906 501.667969 C 372.589844 500.742188 371.09375 499.75 369.644531 498.6875 C 368.195312 497.625 366.796875 496.503906 365.449219 495.316406 C 364.101562 494.128906 362.808594 492.882812 361.574219 491.578125 C 360.339844 490.273438 359.164062 488.917969 358.050781 487.507812 C 356.941406 486.097656 355.894531 484.640625 354.910156 483.136719 C 353.929688 481.632812 353.019531 480.085938 352.175781 478.5 C 351.335938 476.914062 350.566406 475.292969 349.871094 473.636719 C 349.175781 471.980469 348.558594 470.292969 348.015625 468.582031 C 347.472656 466.871094 347.007812 465.136719 346.621094 463.382812 C 346.234375 461.628906 345.929688 459.859375 345.703125 458.078125 C 345.320312 455.429688 345.121094 452.765625 345.105469 450.085938 L 345.105469 367.640625 C 345.105469 366.652344 345.203125 365.675781 345.394531 364.707031 C 345.585938 363.738281 345.871094 362.800781 346.25 361.886719 C 346.628906 360.976562 347.089844 360.109375 347.636719 359.289062 C 348.1875 358.46875 348.808594 357.707031 349.507812 357.011719 C 350.207031 356.3125 350.964844 355.6875 351.785156 355.140625 C 352.605469 354.59375 353.472656 354.128906 354.386719 353.75 C 355.296875 353.375 356.238281 353.089844 357.207031 352.894531 C 358.171875 352.703125 359.152344 352.605469 360.136719 352.605469 L 449.621094 352.605469 C 450.585938 352.644531 451.535156 352.773438 452.472656 352.996094 C 453.40625 353.214844 454.316406 353.523438 455.191406 353.917969 C 456.070312 354.3125 456.902344 354.789062 457.691406 355.34375 C 458.476562 355.898438 459.203125 356.519531 459.871094 357.214844 C 460.535156 357.910156 461.128906 358.660156 461.652344 359.46875 C 462.175781 360.277344 462.617188 361.128906 462.976562 362.023438 C 463.335938 362.914062 463.605469 363.835938 463.789062 364.777344 C 463.96875 365.722656 464.058594 366.679688 464.058594 367.640625 Z M 464.058594 367.640625 " fill-opacity="1" fill-rule="nonzero"/><g clip-path="url(#9cb64b7d18)"><path fill="#ffffff" d="M 715.332031 237.113281 L 583.371094 237.113281 L 583.371094 171.96875 C 583.371094 170.5625 583.335938 169.15625 583.261719 167.75 C 583.191406 166.34375 583.085938 164.941406 582.949219 163.542969 C 582.808594 162.144531 582.636719 160.746094 582.429688 159.355469 C 582.21875 157.964844 581.980469 156.578125 581.703125 155.199219 C 581.429688 153.820312 581.117188 152.449219 580.777344 151.082031 C 580.433594 149.71875 580.058594 148.363281 579.648438 147.015625 C 579.242188 145.671875 578.800781 144.335938 578.324219 143.011719 C 577.851562 141.6875 577.34375 140.375 576.804688 139.074219 C 576.269531 137.777344 575.699219 136.488281 575.097656 135.21875 C 574.496094 133.945312 573.863281 132.691406 573.199219 131.449219 C 572.539062 130.207031 571.84375 128.984375 571.121094 127.777344 C 570.398438 126.570312 569.648438 125.382812 568.867188 124.210938 C 568.085938 123.039062 567.277344 121.890625 566.441406 120.757812 C 565.605469 119.628906 564.738281 118.519531 563.847656 117.429688 C 562.957031 116.34375 562.039062 115.277344 561.097656 114.234375 C 560.152344 113.191406 559.183594 112.171875 558.191406 111.175781 C 557.199219 110.175781 556.179688 109.207031 555.140625 108.261719 C 554.097656 107.3125 553.035156 106.394531 551.949219 105.5 C 550.863281 104.605469 549.757812 103.738281 548.628906 102.898438 C 547.5 102.058594 546.351562 101.246094 545.183594 100.460938 C 544.015625 99.675781 542.828125 98.921875 541.625 98.195312 C 540.417969 97.46875 539.195312 96.773438 537.957031 96.109375 C 536.71875 95.441406 535.464844 94.804688 534.195312 94.203125 C 532.921875 93.597656 531.640625 93.023438 530.339844 92.480469 C 529.042969 91.9375 527.730469 91.429688 526.410156 90.953125 C 525.085938 90.472656 523.75 90.027344 522.40625 89.617188 C 521.0625 89.203125 519.707031 88.824219 518.34375 88.476562 C 516.980469 88.132812 515.609375 87.820312 514.230469 87.539062 C 512.851562 87.261719 511.46875 87.015625 510.078125 86.804688 C 508.6875 86.59375 507.289062 86.414062 505.890625 86.269531 C 504.492188 86.128906 503.089844 86.019531 501.683594 85.945312 C 500.28125 85.871094 498.875 85.828125 497.46875 85.824219 L 311.339844 85.824219 C 309.933594 85.828125 308.527344 85.871094 307.121094 85.945312 C 305.71875 86.019531 304.316406 86.128906 302.914062 86.269531 C 301.515625 86.414062 300.121094 86.59375 298.730469 86.804688 C 297.339844 87.015625 295.953125 87.261719 294.574219 87.539062 C 293.195312 87.820312 291.824219 88.132812 290.460938 88.476562 C 289.097656 88.824219 287.746094 89.203125 286.398438 89.617188 C 285.054688 90.027344 283.722656 90.472656 282.398438 90.953125 C 281.074219 91.429688 279.765625 91.9375 278.464844 92.480469 C 277.167969 93.023438 275.882812 93.597656 274.613281 94.203125 C 273.34375 94.804688 272.089844 95.441406 270.847656 96.109375 C 269.609375 96.773438 268.386719 97.46875 267.183594 98.195312 C 265.976562 98.921875 264.792969 99.675781 263.625 100.460938 C 262.457031 101.246094 261.308594 102.058594 260.179688 102.898438 C 259.050781 103.738281 257.941406 104.605469 256.855469 105.5 C 255.769531 106.394531 254.707031 107.3125 253.667969 108.261719 C 252.625 109.207031 251.609375 110.175781 250.617188 111.171875 C 249.621094 112.171875 248.652344 113.191406 247.710938 114.234375 C 246.765625 115.277344 245.847656 116.34375 244.957031 117.429688 C 244.066406 118.519531 243.203125 119.628906 242.367188 120.757812 C 241.527344 121.890625 240.71875 123.039062 239.9375 124.210938 C 239.160156 125.382812 238.40625 126.570312 237.683594 127.777344 C 236.960938 128.984375 236.269531 130.207031 235.605469 131.449219 C 234.941406 132.691406 234.3125 133.945312 233.710938 135.21875 C 233.109375 136.488281 232.539062 137.777344 232 139.074219 C 231.460938 140.375 230.957031 141.6875 230.480469 143.011719 C 230.007812 144.335938 229.566406 145.671875 229.15625 147.015625 C 228.75 148.363281 228.371094 149.71875 228.03125 151.082031 C 227.6875 152.449219 227.378906 153.820312 227.101562 155.199219 C 226.828125 156.578125 226.585938 157.964844 226.378906 159.355469 C 226.171875 160.746094 225.996094 162.144531 225.859375 163.542969 C 225.71875 164.941406 225.613281 166.34375 225.542969 167.75 C 225.472656 169.15625 225.4375 170.5625 225.433594 171.96875 L 225.433594 237.113281 L 94.191406 237.113281 C 92.4375 237.109375 90.6875 237.191406 88.945312 237.359375 C 87.199219 237.527344 85.464844 237.78125 83.746094 238.117188 C 82.027344 238.457031 80.328125 238.878906 78.648438 239.386719 C 76.96875 239.890625 75.320312 240.480469 73.699219 241.148438 C 72.078125 241.816406 70.492188 242.5625 68.945312 243.386719 C 67.398438 244.210938 65.894531 245.105469 64.4375 246.078125 C 62.976562 247.050781 61.570312 248.09375 60.214844 249.203125 C 58.855469 250.3125 57.558594 251.488281 56.316406 252.726562 C 55.078125 253.964844 53.898438 255.261719 52.785156 256.613281 C 51.671875 257.96875 50.628906 259.375 49.652344 260.832031 C 48.675781 262.289062 47.777344 263.789062 46.949219 265.335938 C 46.121094 266.878906 45.371094 268.460938 44.699219 270.082031 C 44.027344 271.699219 43.4375 273.347656 42.925781 275.027344 C 42.417969 276.703125 41.992188 278.402344 41.648438 280.121094 C 41.308594 281.839844 41.050781 283.574219 40.878906 285.316406 C 40.707031 287.0625 40.621094 288.8125 40.621094 290.566406 L 40.621094 389.953125 L 318.257812 389.953125 L 318.257812 368.355469 C 318.261719 366.980469 318.328125 365.609375 318.460938 364.238281 C 318.597656 362.871094 318.796875 361.511719 319.066406 360.164062 C 319.335938 358.8125 319.667969 357.480469 320.066406 356.164062 C 320.46875 354.847656 320.929688 353.554688 321.457031 352.285156 C 321.984375 351.011719 322.570312 349.773438 323.21875 348.558594 C 323.867188 347.34375 324.574219 346.167969 325.335938 345.023438 C 326.101562 343.878906 326.921875 342.777344 327.792969 341.714844 C 328.664062 340.648438 329.589844 339.632812 330.5625 338.660156 C 331.535156 337.6875 332.550781 336.765625 333.613281 335.890625 C 334.679688 335.019531 335.78125 334.199219 336.925781 333.4375 C 338.070312 332.671875 339.246094 331.964844 340.460938 331.316406 C 341.671875 330.667969 342.914062 330.082031 344.1875 329.554688 C 345.457031 329.027344 346.75 328.566406 348.066406 328.167969 C 349.382812 327.765625 350.714844 327.433594 352.0625 327.164062 C 353.414062 326.898438 354.773438 326.695312 356.140625 326.558594 C 357.511719 326.425781 358.882812 326.359375 360.257812 326.359375 L 448.550781 326.359375 C 449.925781 326.359375 451.296875 326.425781 452.664062 326.558594 C 454.035156 326.695312 455.394531 326.898438 456.742188 327.164062 C 458.089844 327.433594 459.425781 327.765625 460.742188 328.167969 C 462.058594 328.566406 463.351562 329.027344 464.621094 329.554688 C 465.890625 330.082031 467.132812 330.667969 468.347656 331.316406 C 469.558594 331.964844 470.738281 332.671875 471.882812 333.4375 C 473.027344 334.199219 474.128906 335.019531 475.191406 335.890625 C 476.253906 336.765625 477.273438 337.6875 478.246094 338.660156 C 479.21875 339.632812 480.140625 340.648438 481.015625 341.714844 C 481.886719 342.777344 482.703125 343.878906 483.46875 345.023438 C 484.234375 346.167969 484.941406 347.34375 485.589844 348.558594 C 486.238281 349.773438 486.824219 351.011719 487.351562 352.285156 C 487.875 353.554688 488.339844 354.847656 488.738281 356.164062 C 489.136719 357.480469 489.472656 358.8125 489.738281 360.164062 C 490.007812 361.511719 490.210938 362.871094 490.34375 364.238281 C 490.480469 365.609375 490.546875 366.980469 490.546875 368.355469 L 490.546875 389.953125 L 768.902344 389.953125 L 768.902344 290.566406 C 768.902344 288.8125 768.816406 287.0625 768.644531 285.316406 C 768.472656 283.574219 768.214844 281.839844 767.875 280.121094 C 767.53125 278.402344 767.105469 276.703125 766.59375 275.027344 C 766.085938 273.347656 765.496094 271.699219 764.824219 270.082031 C 764.152344 268.460938 763.402344 266.878906 762.574219 265.335938 C 761.746094 263.789062 760.84375 262.289062 759.871094 260.832031 C 758.894531 259.375 757.851562 257.96875 756.738281 256.613281 C 755.625 255.261719 754.445312 253.964844 753.207031 252.726562 C 751.964844 251.488281 750.664062 250.3125 749.308594 249.203125 C 747.953125 248.09375 746.542969 247.050781 745.085938 246.078125 C 743.625 245.105469 742.125 244.210938 740.574219 243.386719 C 739.027344 242.5625 737.445312 241.816406 735.824219 241.148438 C 734.203125 240.480469 732.554688 239.890625 730.875 239.386719 C 729.195312 238.878906 727.496094 238.457031 725.777344 238.117188 C 724.058594 237.78125 722.324219 237.527344 720.578125 237.359375 C 718.835938 237.191406 717.085938 237.109375 715.332031 237.113281 Z M 279.484375 171.96875 C 279.488281 170.925781 279.542969 169.886719 279.648438 168.847656 C 279.753906 167.8125 279.910156 166.78125 280.113281 165.761719 C 280.320312 164.738281 280.578125 163.730469 280.882812 162.734375 C 281.1875 161.738281 281.539062 160.757812 281.941406 159.796875 C 282.339844 158.832031 282.785156 157.894531 283.28125 156.972656 C 283.773438 156.054688 284.308594 155.164062 284.886719 154.296875 C 285.46875 153.429688 286.089844 152.59375 286.75 151.789062 C 287.410156 150.984375 288.113281 150.214844 288.847656 149.476562 C 289.585938 148.738281 290.355469 148.039062 291.160156 147.378906 C 291.96875 146.71875 292.804688 146.097656 293.667969 145.515625 C 294.535156 144.9375 295.425781 144.402344 296.347656 143.90625 C 297.265625 143.414062 298.203125 142.96875 299.167969 142.566406 C 300.128906 142.167969 301.109375 141.816406 302.105469 141.507812 C 303.101562 141.203125 304.109375 140.949219 305.132812 140.742188 C 306.15625 140.535156 307.183594 140.382812 308.222656 140.277344 C 309.257812 140.167969 310.296875 140.113281 311.339844 140.109375 L 497.46875 140.109375 C 498.507812 140.113281 499.550781 140.167969 500.585938 140.277344 C 501.621094 140.382812 502.652344 140.535156 503.675781 140.742188 C 504.695312 140.949219 505.703125 141.203125 506.703125 141.507812 C 507.699219 141.816406 508.675781 142.167969 509.640625 142.566406 C 510.601562 142.96875 511.542969 143.414062 512.460938 143.90625 C 513.378906 144.402344 514.273438 144.9375 515.136719 145.515625 C 516.003906 146.097656 516.839844 146.71875 517.644531 147.378906 C 518.449219 148.039062 519.222656 148.738281 519.957031 149.476562 C 520.695312 150.214844 521.394531 150.984375 522.054688 151.789062 C 522.71875 152.59375 523.339844 153.429688 523.917969 154.296875 C 524.5 155.164062 525.035156 156.054688 525.527344 156.972656 C 526.019531 157.894531 526.464844 158.832031 526.867188 159.796875 C 527.269531 160.757812 527.621094 161.738281 527.925781 162.734375 C 528.230469 163.730469 528.484375 164.738281 528.691406 165.761719 C 528.898438 166.78125 529.054688 167.8125 529.160156 168.847656 C 529.265625 169.886719 529.320312 170.925781 529.324219 171.96875 L 529.324219 237.113281 L 279.484375 237.113281 Z M 279.484375 171.96875 " fill-opacity="1" fill-rule="nonzero"/></g></svg>